<?xml version="1.0" standalone="no"?>
<!DOCTYPE svg PUBLIC "-//W3C//DTD SVG 20010904//EN"
 "http://www.w3.org/TR/2001/REC-SVG-20010904/DTD/svg10.dtd">
<svg version="1.0" xmlns="http://www.w3.org/2000/svg"
 width="534.000000pt" height="534.000000pt" viewBox="0 0 534.000000 534.000000"
 preserveAspectRatio="xMidYMid meet">
<metadata>
Created by potrace 1.14, written by Peter Selinger 2001-2017
</metadata>
<g transform="translate(0.000000,534.000000) scale(0.100000,-0.100000)"
fill="#000000" stroke="none">
<path d="M0 2670 l0 -2670 2670 0 2670 0 0 2670 0 2670 -2670 0 -2670 0 0
-2670z m3219 1669 c45 -23 88 -63 96 -88 3 -11 25 -21 63 -29 99 -21 136 -47
197 -141 30 -46 55 -91 54 -100 0 -11 -3 -8 -10 7 -5 13 -32 57 -61 98 -56 80
-90 103 -187 126 -44 10 -58 18 -78 50 -37 55 -99 88 -168 88 -30 0 -71 -7
-90 -14 -19 -8 -35 -13 -35 -10 0 3 15 11 33 19 49 22 139 19 186 -6z m-247
-58 c-23 -24 -51 -35 -143 -56 -159 -38 -215 -67 -251 -130 -16 -27 -31 -58
-34 -67 -5 -14 -18 -18 -53 -18 -25 -1 -71 -9 -101 -20 -30 -11 -122 -33 -205
-51 -268 -55 -488 -141 -588 -229 -45 -40 -159 -210 -219 -327 -18 -35 -27
-43 -47 -42 -20 1 -22 3 -6 6 12 2 37 33 65 81 83 143 171 271 208 302 109 90
355 179 647 234 44 8 97 22 118 31 21 9 66 19 100 22 60 5 63 7 90 50 15 24
27 51 27 58 0 34 99 77 268 115 58 14 97 28 105 39 10 15 26 26 45 30 2 1 -10
-12 -26 -28z m833 -337 c204 -45 371 -108 462 -176 69 -52 268 -318 332 -446
31 -61 20 -63 -13 -3 -47 88 -147 233 -223 326 -83 103 -156 157 -279 206 -82
33 -368 109 -409 109 -13 0 -27 5 -30 10 -4 7 2 9 17 6 12 -3 77 -17 143 -32z
m-2605 -605 c-240 -26 -404 -90 -589 -229 -226 -171 -370 -425 -400 -705 -7
-66 -9 -71 -10 -30 -1 68 30 214 68 310 98 256 309 464 591 585 91 39 273 79
355 78 l60 -1 -75 -8z m3470 -184 c0 -5 -5 -3 -10 5 -5 8 -10 20 -10 25 0 6 5
3 10 -5 5 -8 10 -19 10 -25z m449 -100 c33 -17 41 -33 41 -84 0 -68 -62 -173
-352 -596 l-96 -140 35 -150 c59 -260 103 -479 103 -516 0 -49 -41 -123 -102
-186 -151 -153 -427 -189 -630 -81 -33 17 -63 38 -68 47 -4 9 -10 48 -13 86
l-6 70 12 -74 c12 -73 13 -75 57 -103 146 -92 341 -103 508 -28 79 36 173 125
208 197 32 65 30 96 -22 324 -19 85 -48 214 -65 287 l-30 132 170 248 c185
271 267 407 277 460 9 47 -6 84 -38 100 -39 18 -115 -11 -238 -92 -54 -36
-103 -66 -108 -66 -8 0 -45 140 -38 147 2 2 12 -28 23 -67 l19 -70 64 46 c92
65 203 120 248 123 7 1 26 -6 41 -14z m-4922 -787 c-2 -13 -4 -5 -4 17 -1 22
1 32 4 23 2 -10 2 -28 0 -40z m16 -110 c18 -207 122 -424 280 -582 75 -75 175
-150 291 -218 l68 -40 -6 -55 c-4 -31 -27 -117 -53 -192 -76 -227 -70 -303 32
-401 88 -82 182 -116 355 -126 203 -12 345 41 403 151 24 44 29 153 14 293
l-7 74 27 -6 c40 -8 455 -45 613 -55 99 -6 115 -8 62 -10 -67 -1 -464 29 -624
48 l-68 7 8 -55 c4 -31 7 -103 7 -161 0 -97 -2 -109 -28 -153 -33 -56 -95 -99
-177 -125 -41 -12 -91 -17 -190 -16 -149 0 -226 15 -318 61 -63 32 -145 118
-162 169 -21 64 -7 166 43 314 25 74 49 156 52 181 l7 47 -69 40 c-288 170
-462 375 -538 637 -24 82 -48 258 -34 250 3 -3 9 -37 12 -77z m3787 -677 c-63
-49 -242 -153 -408 -239 l-184 -94 7 -37 c4 -20 14 -70 21 -111 8 -41 17 -154
20 -250 l6 -175 -41 -57 c-73 -101 -206 -169 -363 -187 -37 -4 -65 -3 -62 1 3
4 22 8 42 8 55 0 156 27 215 56 74 37 129 85 167 144 l33 51 -6 167 c-4 99
-15 210 -27 272 -11 58 -20 110 -20 116 0 6 84 55 188 108 103 53 239 130 302
170 107 70 166 100 110 57z m-1452 -673 l-3 -183 -2 177 -3 177 -88 4 -87 3
93 2 92 2 -2 -182z m29 -314 c23 -41 101 -102 159 -123 32 -13 90 -25 127 -28
37 -3 69 -9 72 -12 8 -14 -155 9 -210 30 -61 23 -137 84 -161 130 -8 16 -13
45 -13 66 l2 38 6 -40 c4 -22 12 -49 18 -61z"/>
</g>
</svg>
